<svg version="1.1" id="Layer_1" xmlns="http://www.w3.org/2000/svg" xmlns:xlink="http://www.w3.org/1999/xlink" x="0px" y="0px"
	 width="100%" viewBox="0 0 1024 1024" enable-background="new 0 0 1024 1024" xml:space="preserve">
<path fill="#000000" opacity="1.000000" stroke="none" 
	d="
M1025.000000,579.531372 
	C1024.672729,579.937073 1024.276001,579.720886 1024.028198,579.833252 
	C1011.921631,585.321655 997.882812,585.398315 987.830750,596.976685 
	C978.482483,607.744446 968.956421,618.953308 956.295471,626.539062 
	C951.179688,629.604187 945.139221,630.193359 940.235901,634.204407 
	C932.627258,640.428589 926.230042,647.993713 918.086670,653.592102 
	C915.605164,655.298035 915.800476,658.296326 916.039001,660.966492 
	C916.566223,666.867188 914.698059,671.201965 909.159729,674.118652 
	C905.139954,676.235596 902.356140,679.960815 900.137146,683.941284 
	C896.216492,690.973877 890.114990,695.369385 882.906494,698.482544 
	C879.395691,699.998840 875.856018,700.282104 872.200623,698.968323 
	C870.479675,698.349670 868.653931,698.023193 866.931213,697.408691 
	C848.244324,690.743103 832.443665,695.395142 818.997681,709.509094 
	C815.206421,713.488708 811.286804,717.324646 806.928040,720.720825 
	C800.364136,725.835388 794.037476,726.345459 787.128601,721.742249 
	C783.392273,719.252869 779.831238,716.488953 776.289612,713.722717 
	C773.782776,711.764709 771.338135,709.502380 768.288879,708.717957 
	C760.633484,706.748535 754.485474,702.317322 748.375854,697.640930 
	C740.580139,691.674072 731.736084,689.485168 722.015808,690.981079 
	C712.313721,692.474121 702.679565,694.301086 692.788147,694.494141 
	C686.586182,694.615173 680.598694,696.481995 675.290588,699.874817 
	C668.812317,704.015442 661.636841,705.867920 654.146973,706.960449 
	C650.031067,707.560852 645.910828,708.283508 641.884277,709.310791 
	C635.219666,711.010986 629.219116,709.671997 624.034912,705.432129 
	C617.262451,699.893127 609.899353,696.967102 600.991211,698.007690 
	C597.054138,698.467590 593.033325,697.962463 589.047913,697.376160 
	C578.756104,695.862305 569.853638,700.300842 560.902283,704.369019 
	C559.790466,704.874268 559.052063,705.814880 558.718994,706.979431 
	C558.163635,708.920898 559.167419,711.799194 556.211609,712.328613 
	C553.261414,712.857117 550.092957,712.869629 547.494446,711.078186 
	C539.778931,705.759033 530.593750,703.235168 522.871460,697.914246 
	C520.152100,696.040466 517.073730,694.648987 514.060974,693.248718 
	C509.686646,691.215820 506.326752,688.420593 504.211487,683.854187 
	C500.366394,675.553345 496.800842,673.870056 487.873566,675.569397 
	C481.869507,676.712341 475.959839,676.734497 470.096130,674.894287 
	C466.473206,673.757263 462.876862,674.078613 459.245422,674.928833 
	C445.771027,678.083679 433.177246,675.609375 421.158569,669.062256 
	C418.008514,667.346191 415.760559,664.659485 413.056519,662.477051 
	C402.974701,654.340088 391.097870,651.789124 378.615906,650.992432 
	C371.817749,650.558472 364.596680,648.381042 358.294739,650.937317 
	C347.226288,655.427246 336.293610,655.955688 324.469086,655.763062 
	C314.328766,655.597778 304.156799,660.526672 295.028259,665.832581 
	C284.266449,672.087830 272.980255,676.007935 260.407196,674.656555 
	C253.880127,673.954956 247.381119,673.645264 241.029449,675.212158 
	C231.454727,677.574280 222.617905,675.542114 214.763153,670.381409 
	C205.034134,663.989258 194.888824,660.783386 183.184814,661.877869 
	C177.396683,662.419128 171.553558,660.999573 165.891602,659.654846 
	C160.552505,658.386658 155.855789,659.496216 151.822784,662.795044 
	C147.870148,666.028320 143.773727,666.443726 139.211273,664.863037 
	C128.928497,661.300537 118.691048,661.120178 108.377655,664.871094 
	C100.719704,667.656372 94.184784,665.869263 88.332649,660.053040 
	C82.464233,654.220703 77.357384,648.282532 75.188728,639.887146 
	C73.315063,632.633850 69.434395,626.049316 64.760406,620.106201 
	C56.787994,609.968933 54.133438,598.093323 53.026714,585.625977 
	C52.335423,577.838501 51.893246,570.009705 49.862404,562.392090 
	C48.816124,558.467590 47.253582,554.889954 44.482525,551.827087 
	C36.154922,542.622681 32.632854,530.682556 26.652065,520.138306 
	C24.353521,516.085938 22.425282,511.826660 19.707945,508.008698 
	C17.129265,504.385620 16.175083,500.214539 15.378448,495.903290 
	C14.248155,489.786346 12.822295,488.858612 7.265214,491.073700 
	C4.941071,492.000153 3.498599,488.126831 1.222381,490.828064 
	C1.000000,451.645782 1.000000,412.291534 1.198254,372.679016 
	C1.873366,373.067780 2.499726,374.394928 3.075368,373.957581 
	C6.739877,371.173798 10.405702,373.206818 14.045344,373.720520 
	C17.968391,374.274170 21.045843,373.411316 23.748104,370.136475 
	C26.772118,366.471771 29.702799,362.436615 34.855526,361.269135 
	C47.711384,358.356415 57.674034,350.961639 66.401642,341.362915 
	C72.219589,334.964264 78.787987,329.306061 85.729080,324.078949 
	C98.718529,314.297119 110.733612,303.646545 117.825005,288.451355 
	C122.896049,277.585266 128.119324,266.730469 135.458771,257.155487 
	C142.050430,248.556107 147.187393,238.238525 159.366135,235.770782 
	C162.947342,235.045120 166.510254,234.076141 169.954880,232.859924 
	C178.409180,229.874863 187.717926,229.263718 195.558884,224.809647 
	C210.192245,216.497131 224.921982,209.004517 242.441788,209.985199 
	C244.977173,210.127121 247.358566,209.145096 249.692322,208.247452 
	C254.477173,206.407028 258.899506,206.877258 263.667511,208.983429 
	C270.979187,212.213272 278.516174,213.506516 286.886627,212.613541 
	C298.714539,211.351746 310.866455,210.451813 322.555359,214.169769 
	C332.261871,217.257141 342.076447,219.733810 352.129669,221.354538 
	C356.420410,222.046265 360.618164,223.246658 364.201324,225.874313 
	C381.046936,238.227661 400.431061,243.765045 420.678009,247.045532 
	C430.789917,248.683899 441.005188,247.352280 451.105225,248.179108 
	C457.234711,248.680893 463.258423,248.962265 468.730591,246.350784 
	C481.215271,240.392700 492.575775,242.201508 503.514618,249.973419 
	C507.865509,253.064651 512.793823,254.263611 518.159363,254.091110 
	C529.924133,253.712875 541.429749,255.531509 552.590637,259.135773 
	C559.450623,261.351166 566.400757,262.959229 573.529297,263.754547 
	C578.513977,264.310730 583.355164,265.278900 588.195496,266.634308 
	C595.110596,268.570709 602.223206,269.564453 609.459534,268.949768 
	C612.585754,268.684265 614.934692,267.888245 614.478516,263.814636 
	C613.699097,256.854034 617.465515,252.889160 624.594910,253.120407 
	C629.351440,253.274689 633.784851,254.658157 637.430481,257.953461 
	C639.681763,259.988342 641.801941,260.436707 644.501282,258.321625 
	C649.918396,254.077042 656.361023,252.429535 663.125427,251.962448 
	C677.055664,251.000610 691.121643,251.734467 704.878418,248.574615 
	C705.990173,248.319260 707.230591,248.251099 708.347961,248.450455 
	C721.461975,250.789902 734.630432,252.923843 747.487366,256.459656 
	C757.636536,259.250732 767.724548,261.695892 778.423645,260.683899 
	C783.248291,260.227539 788.025574,261.204376 792.253174,264.062164 
	C797.043884,267.300507 802.406250,268.590790 808.173584,269.339111 
	C814.167175,270.116760 820.171448,267.677063 826.032104,269.865875 
	C834.757446,273.124573 843.894958,273.588318 853.060608,274.091064 
	C868.222778,274.922760 883.275818,276.465576 897.631531,281.967773 
	C905.104431,284.831940 912.687378,287.288361 920.698975,288.286316 
	C924.129517,288.713623 927.279968,289.940063 930.493164,291.596527 
	C940.440735,296.724701 948.421509,304.940796 958.901123,309.198486 
	C961.117371,310.098877 962.974731,312.059662 964.779114,313.763123 
	C970.115356,318.800720 976.000977,322.526855 983.571777,323.198547 
	C988.563416,323.641418 992.606934,325.855042 995.855469,329.979523 
	C998.928345,333.880890 1002.653442,337.832520 1007.358765,339.252106 
	C1013.445068,341.088379 1019.322815,343.213165 1025.000000,346.000000 
	C1025.000000,423.687561 1025.000000,501.375122 1025.000000,579.531372 
M161.350906,558.499939 
	C161.351196,567.165588 161.339569,575.831238 161.354691,584.496887 
	C161.376129,596.779236 168.203125,603.638245 180.495941,603.640320 
	C240.489471,603.650330 300.483002,603.646423 360.476532,603.626770 
	C372.507324,603.622803 378.692505,597.490295 378.697723,585.564758 
	C378.714630,546.902283 378.690216,508.239777 378.721954,469.577332 
	C378.723633,467.544861 378.123566,465.332672 379.728333,463.230469 
	C381.551270,464.501709 383.104584,465.718811 384.782104,466.729858 
	C389.965027,469.853912 395.743317,469.150879 398.764221,465.113647 
	C401.832703,461.012848 400.974335,457.653076 395.581177,452.716522 
	C394.720978,451.929138 393.824127,451.181946 392.947021,450.412933 
	C380.921936,439.870056 368.949524,429.266022 356.835754,418.826019 
	C353.828461,416.234192 352.472565,413.455292 352.559570,409.377991 
	C352.815582,397.384766 352.689880,385.382324 352.629211,373.383911 
	C352.601227,367.848969 351.019562,366.269836 345.484314,366.137543 
	C340.820496,366.026093 336.151672,366.019836 331.486786,366.087219 
	C325.931702,366.167480 324.433075,367.697479 324.365814,373.297607 
	C324.304810,378.375793 324.352905,383.455261 324.352905,389.298340 
	C322.916901,388.361298 322.203766,388.008392 321.625214,387.501801 
	C309.092102,376.527252 296.544769,365.568726 284.060883,354.538361 
	C270.090332,342.194336 268.848053,342.334290 255.007675,354.649597 
	C225.139328,381.226837 195.097031,407.608551 165.148087,434.095337 
	C157.536499,440.826996 149.905334,447.542572 142.478775,454.475098 
	C137.811188,458.832123 138.385681,464.498962 143.594864,467.355988 
	C147.993057,469.768188 152.220901,468.967407 156.240921,466.127502 
	C157.667282,465.119904 158.514053,463.182678 161.351425,463.152740 
	C161.351425,494.657715 161.351425,526.078796 161.350906,558.499939 
M500.368225,552.077332 
	C500.360779,570.075134 500.351807,588.072876 500.346466,606.070679 
	C500.342896,618.150452 499.131653,617.595886 512.083374,617.590759 
	C518.835388,617.588074 519.620239,616.858093 519.624207,610.226807 
	C519.634277,593.395569 519.620300,576.564270 519.613892,559.733032 
	C519.608582,545.901428 519.529297,532.069275 519.641907,518.238586 
	C519.671021,514.659729 518.562744,513.045898 514.750732,513.321045 
	C510.937897,513.596252 507.073822,513.592834 503.260986,513.315613 
	C499.443329,513.038025 497.156342,514.481384 495.245850,517.808594 
	C487.865814,530.661072 480.235504,543.369995 472.674530,556.118225 
	C471.854767,557.500305 471.486481,559.312195 469.138489,559.882996 
	C462.890320,549.043945 456.494385,538.161255 450.306824,527.161316 
	C442.456543,513.205566 442.528442,513.352844 426.731781,513.267578 
	C421.701172,513.240479 420.218872,514.749146 420.260193,519.812927 
	C420.491333,548.140869 420.428131,576.471863 420.345856,604.801453 
	C420.299164,620.877197 421.078583,617.116516 433.421448,617.625000 
	C438.114624,617.818359 439.815430,616.122253 439.753632,611.226868 
	C439.505524,591.565735 439.631592,571.899597 439.686188,552.235535 
	C439.690887,550.533020 439.033875,548.632690 440.862427,546.596191 
	C450.401276,562.691956 459.794952,578.542786 469.790619,595.409424 
	C480.153198,578.205872 489.696259,562.362854 499.439148,546.188049 
	C500.957367,548.295166 500.136414,549.825500 500.368225,552.077332 
M439.749084,487.954163 
	C439.770782,478.795624 439.765503,469.636871 439.839813,460.478760 
	C439.852661,458.895416 439.451050,457.080841 441.283325,456.022705 
	C444.797485,453.993195 453.109283,456.168121 455.303131,459.729645 
	C461.239777,469.367340 467.159149,479.015686 473.098846,488.651489 
	C473.963043,490.053406 474.595917,492.124664 476.307678,492.270081 
	C482.168427,492.768066 488.085236,493.301056 494.777893,491.631134 
	C488.241394,478.012360 479.648285,466.360321 472.780151,453.405121 
	C474.369598,452.405762 475.760254,451.542572 477.139893,450.662201 
	C488.599731,443.349487 494.932800,428.919189 492.286835,416.157593 
	C489.258240,401.550568 479.368805,391.614258 465.046143,389.266327 
	C452.486816,387.207458 439.790649,388.967499 427.176880,388.332458 
	C422.579193,388.101013 421.226105,389.780365 421.256409,394.365173 
	C421.445831,423.005524 421.258392,451.648132 421.387970,480.289124 
	C421.451965,494.430481 418.886261,492.503693 434.343231,492.635193 
	C434.675995,492.638031 435.008850,492.611755 435.341766,492.607300 
	C437.858154,492.573608 439.471405,491.502380 439.749084,487.954163 
M686.813171,472.499268 
	C687.101807,463.196442 686.067078,453.857697 687.666199,444.589050 
	C689.290771,435.173218 696.506531,430.057007 704.673157,432.610748 
	C710.732910,434.505646 714.222046,440.299255 714.301208,449.042938 
	C714.397644,459.700470 714.261719,470.360107 714.351501,481.017761 
	C714.463196,494.273346 712.380066,492.533478 725.998352,492.631104 
	C732.098145,492.674835 732.598145,492.190613 732.628174,486.154175 
	C732.689514,473.830719 732.632690,461.506653 732.669556,449.182983 
	C732.683228,444.600006 733.602417,440.202209 736.474304,436.513153 
	C739.592590,432.507568 744.721313,431.049683 749.433044,432.370575 
	C755.791748,434.153137 758.442871,438.874908 759.278259,444.864563 
	C760.918884,456.627228 759.935303,468.474213 760.116333,480.282349 
	C760.314819,493.228363 760.391113,493.336426 773.238281,492.648956 
	C776.397095,492.479950 777.719971,491.361908 777.702942,488.166595 
	C777.620544,472.679169 777.862427,457.186920 777.562439,441.704681 
	C777.348816,430.677460 769.892151,420.286377 760.534546,417.406921 
	C750.702820,414.381531 738.185181,415.935242 731.528809,426.016907 
	C731.100342,426.665802 730.343018,427.097565 729.527527,427.816498 
	C723.877441,421.100220 717.381348,416.518921 708.310791,416.085083 
	C699.098328,415.644440 692.075623,419.297699 686.467651,427.352051 
	C684.863525,418.332458 684.863525,418.332550 676.782410,417.774933 
	C676.616272,417.763489 676.450928,417.741577 676.284790,417.729889 
	C669.661560,417.262909 669.218323,417.676056 669.219299,424.452362 
	C669.221924,443.104553 669.154236,461.757202 669.266174,480.408783 
	C669.350464,494.449341 666.840698,492.517181 682.379822,492.635559 
	C685.591492,492.660004 686.833923,491.044220 686.800476,487.987152 
	C686.747620,483.158295 686.803040,478.328308 686.813171,472.499268 
M782.034729,585.512451 
	C782.045288,592.340820 782.002991,599.169739 782.077698,605.997437 
	C782.226318,619.586548 780.057800,617.322205 794.208557,617.608215 
	C798.166809,617.688171 799.829468,616.158630 799.775696,611.983032 
	C799.582642,596.996521 799.769714,582.005432 799.631592,567.017761 
	C799.535828,556.626282 792.620361,546.223633 783.892029,542.824707 
	C773.276428,538.690918 762.661987,541.093994 754.697876,549.427734 
	C754.036804,550.119446 753.528015,551.122009 751.677368,550.568481 
	C751.677368,541.300171 751.681702,531.856567 751.676270,522.412964 
	C751.669922,511.350922 751.658142,511.621307 740.394653,511.285950 
	C735.154480,511.129974 734.001587,513.001587 734.033752,517.897827 
	C734.239929,549.206604 734.148254,580.517273 734.186218,611.827332 
	C734.188171,613.450806 733.804565,615.158081 734.874512,616.905273 
	C738.690369,617.782471 742.677734,616.708252 746.618530,617.049683 
	C750.546326,617.390015 751.824524,615.586121 751.765320,611.743591 
	C751.590881,600.421387 751.744446,589.094543 751.701477,577.769775 
	C751.684631,573.346802 752.685730,569.205383 754.656433,565.274658 
	C757.740051,559.124146 763.177002,555.977417 769.124207,556.892822 
	C775.791016,557.918884 780.229187,562.590271 781.351990,569.572876 
	C782.150391,574.537720 782.037537,579.526550 782.034729,585.512451 
M857.504761,460.649506 
	C867.330627,460.649445 877.160034,460.493561 886.980591,460.722382 
	C891.179749,460.820251 892.847595,459.052948 892.612854,455.150452 
	C892.413513,451.837830 892.068909,448.530548 891.685181,445.232941 
	C889.077759,422.827881 865.218811,409.319794 844.555054,418.530945 
	C827.612732,426.083252 819.009277,447.640625 825.037598,467.435181 
	C831.924561,490.049255 857.151855,500.145050 879.941162,489.407288 
	C889.749390,484.785889 889.949951,483.201233 882.570740,475.320343 
	C880.033081,472.610260 878.183716,472.296295 875.033264,474.464600 
	C868.608643,478.886230 861.398621,479.469360 854.012695,477.130951 
	C846.879700,474.872559 841.809326,467.970093 842.191772,460.648590 
	C846.935242,460.648590 851.721680,460.648590 857.504761,460.649506 
M607.479370,492.114227 
	C619.056091,495.184052 630.310547,494.940308 640.550598,488.005981 
	C653.809082,479.027557 657.813904,465.849670 656.791260,450.578979 
	C655.238953,427.399719 634.046326,411.693542 611.367615,416.916016 
	C594.459595,420.809601 583.289001,434.137878 582.575439,453.104919 
	C581.977844,468.991302 588.606506,485.042511 607.479370,492.114227 
M547.883301,417.492920 
	C538.393921,415.444580 528.969055,415.206085 520.114990,419.781281 
	C504.135529,428.038391 499.506592,442.096069 500.168335,459.030396 
	C500.984436,479.914764 518.686279,498.692535 545.834412,492.961334 
	C562.700378,489.400757 572.893799,476.117371 573.901306,458.027161 
	C574.992371,438.436584 565.926025,423.981262 547.883301,417.492920 
M540.692505,550.475342 
	C540.051880,554.686646 541.343079,558.587402 542.226379,562.672607 
	C554.758301,556.909180 557.301208,556.099243 564.403931,556.762573 
	C570.047668,557.289673 575.294434,558.792297 577.642273,564.865417 
	C579.995300,570.951904 578.748108,572.872498 572.422485,572.915222 
	C564.432922,572.969177 556.410706,572.757141 548.668213,575.259094 
	C537.821838,578.764038 531.394226,589.437805 533.889099,599.733154 
	C538.298157,617.927429 559.711365,625.032654 574.771484,613.324280 
	C576.114136,612.280457 577.128601,610.602966 579.072815,610.396545 
	C581.565552,618.268433 579.745544,616.688538 587.883545,616.967041 
	C589.215271,617.012634 590.555603,616.899902 591.881653,616.998596 
	C595.177185,617.244019 596.737183,616.070496 596.702820,612.467773 
	C596.567749,598.304260 596.870422,584.134033 596.578613,569.975281 
	C596.259277,554.482117 589.662720,544.983215 576.453064,542.126221 
	C563.749146,539.378723 551.611023,541.452209 540.692505,550.475342 
M618.360718,531.555298 
	C618.361267,532.388550 618.368042,533.221863 618.361572,534.055054 
	C618.294556,542.635620 618.913879,542.277466 610.759094,542.206604 
	C609.293823,542.193848 607.234985,541.834534 606.683716,543.379578 
	C605.258301,547.375000 605.404358,551.715881 606.374695,555.685181 
	C607.237000,559.212585 610.927673,557.671509 613.306885,557.581482 
	C617.325684,557.429565 618.459106,558.993958 618.396362,562.836670 
	C618.208557,574.331970 618.352600,585.832520 618.337585,597.330994 
	C618.330750,602.541260 620.010986,607.141113 623.292664,611.140137 
	C629.385559,618.564636 644.571655,621.487671 653.353333,617.000793 
	C654.440491,616.445251 655.490479,615.826050 655.541077,614.514099 
	C655.704529,610.273804 656.162537,606.001221 655.076721,601.595032 
	C652.528015,601.879883 650.414307,602.246765 648.289429,602.330688 
	C639.779724,602.666748 636.786499,599.790894 636.617554,591.353394 
	C636.454163,583.193176 636.160217,575.035034 636.062561,566.874268 
	C635.952942,557.716736 636.020752,557.715942 645.263245,557.700439 
	C656.439941,557.681702 656.572266,557.540344 655.614136,546.652832 
	C655.599548,546.487061 655.600586,546.319885 655.595154,546.153320 
	C655.509827,543.500366 654.135193,542.224243 651.486267,542.234070 
	C648.820251,542.244019 646.154114,542.195679 643.488037,542.184509 
	C635.931396,542.152832 635.931824,542.155151 635.952820,534.830505 
	C635.963379,531.164673 636.009766,527.498352 635.965881,523.833130 
	C635.942627,521.894592 635.441650,519.752319 633.211121,519.711243 
	C628.562622,519.625793 623.631409,519.798340 619.654358,522.137756 
	C616.856140,523.783752 618.759888,527.711792 618.360718,531.555298 
M693.020508,618.613953 
	C701.288330,619.161987 709.322021,618.398254 716.721924,614.260620 
	C727.329895,608.329163 727.352844,607.492310 719.100830,599.025696 
	C716.175842,596.024597 714.299988,595.361694 710.580688,598.323242 
	C699.487366,607.156738 685.281494,601.971497 681.608948,588.276001 
	C680.460876,583.994629 680.339355,579.676453 680.806030,575.399963 
	C682.482361,560.038086 696.338928,552.381958 708.929565,559.702209 
	C715.530945,563.540283 715.531067,563.540283 720.720032,558.033691 
	C721.290894,557.427856 721.804993,556.753723 722.441406,556.227234 
	C725.276978,553.881165 724.482910,551.942444 722.121094,549.694092 
	C709.150940,537.347046 684.448059,538.189392 672.294250,551.439880 
	C654.926880,570.374329 658.827515,612.730591 693.020508,618.613953 
M811.713562,423.743652 
	C812.295349,419.459564 810.529785,417.495667 806.125854,417.882904 
	C804.142151,418.057312 802.117615,418.049561 800.133240,417.876190 
	C795.631592,417.482849 794.024292,419.294556 794.076477,423.914246 
	C794.291077,442.904877 794.150940,461.899323 794.188660,480.892212 
	C794.215881,494.605804 792.883484,492.286560 805.810913,492.721771 
	C810.460999,492.878296 811.830994,491.207733 811.789185,486.661621 
	C811.598999,466.004364 811.712097,445.344269 811.713562,423.743652 
M792.338928,395.114594 
	C791.952332,401.173462 794.282166,405.730072 798.625610,407.409851 
	C802.598633,408.946350 807.772522,407.552185 810.353455,404.133545 
	C812.838013,400.842560 813.633301,397.202332 811.785583,393.368866 
	C809.999023,389.662537 807.096313,387.422668 802.799194,387.290283 
	C797.626587,387.130981 794.343323,389.681427 792.338928,395.114594 
M642.548584,267.396545 
	C642.669800,265.358063 642.215088,263.642456 639.687317,264.288727 
	C638.453064,264.604309 637.227966,265.873505 637.846252,267.259888 
	C638.789246,269.373901 640.521973,269.241943 642.548584,267.396545 
z"/>
<path fill="#000000" opacity="1.000000" stroke="none" 
	d="
M352.657959,567.999512 
	C352.638275,557.500183 353.184082,547.460205 352.468506,537.510864 
	C351.322021,521.569031 334.908630,506.748230 317.757294,505.385498 
	C303.053406,504.217194 290.458649,508.500427 280.785400,520.044067 
	C275.902069,525.871643 273.362305,532.596741 273.354126,540.227844 
	C273.339172,554.227417 273.371948,568.227051 273.309814,582.226379 
	C273.300262,584.383911 274.091949,587.171753 270.309906,587.306885 
	C266.366913,587.447693 266.739807,584.729248 266.737762,582.217712 
	C266.726990,569.051453 266.339935,555.871033 266.823639,542.722656 
	C267.398071,527.106995 259.853790,516.839844 246.776672,509.837982 
	C227.901016,499.731384 203.358337,505.692474 192.158554,522.984619 
	C188.917435,527.988892 187.124191,533.357178 187.186951,539.442688 
	C187.333054,553.607300 187.011078,567.779297 187.325867,581.938354 
	C187.441620,587.145325 184.890808,587.613831 180.892319,587.421265 
	C177.232590,587.245056 173.641846,588.097412 173.665787,582.151978 
	C173.834885,540.154053 173.758774,498.155090 173.707855,456.156525 
	C173.704773,453.617218 174.523880,451.750488 176.446106,450.076660 
	C206.479233,423.924316 236.506287,397.764709 266.425140,371.481995 
	C269.295868,368.960144 271.075226,369.592163 273.577606,371.790863 
	C298.236237,393.456848 322.967834,415.039764 347.684509,436.639740 
	C352.828339,441.135010 357.939362,445.670776 363.178833,450.052338 
	C365.400604,451.910278 366.377167,453.971344 366.371460,456.926605 
	C366.290802,498.591827 366.203857,540.257812 366.420074,581.921997 
	C366.452515,588.172668 362.822327,587.286865 358.981049,587.426147 
	C355.043762,587.568909 352.076385,587.300659 352.569855,581.991211 
	C352.984497,577.529785 352.656555,572.999390 352.657959,567.999512 
M217.456192,497.167938 
	C221.067291,498.735199 224.867874,498.816132 228.718719,498.695709 
	C242.451935,498.266205 254.154160,485.696991 253.579269,471.364960 
	C252.965103,456.054352 241.717682,446.154144 227.588348,445.610260 
	C214.517471,445.107056 203.096588,455.049255 200.568253,467.854645 
	C198.225784,479.718689 204.803955,491.516174 217.456192,497.167938 
M333.414948,488.866821 
	C334.154846,487.761597 334.976990,486.702179 335.621765,485.544006 
	C341.537384,474.918091 339.955750,462.152802 331.715088,453.749237 
	C323.516174,445.388184 311.031311,443.404785 300.400757,448.774445 
	C289.976471,454.039917 283.975189,465.973663 286.579224,477.716248 
	C288.839233,487.907501 295.246460,494.972687 305.412323,497.792725 
	C316.181091,500.779968 325.416046,497.623383 333.414948,488.866821 
z"/>
<path fill="#000000" opacity="1.000000" stroke="none" 
	d="
M440.599518,437.440613 
	C439.228699,427.784088 440.003296,418.456238 439.842133,409.143585 
	C439.809479,407.256592 440.493347,405.782104 442.636566,405.791016 
	C448.793518,405.816681 455.030029,405.346375 461.087402,406.165009 
	C469.465454,407.297363 474.335297,413.658203 474.222290,421.813293 
	C474.102417,430.461975 468.761261,437.179077 460.298584,438.071899 
	C453.893188,438.747650 447.354340,439.007416 440.599518,437.440613 
z"/>
<path fill="#000000" opacity="1.000000" stroke="none" 
	d="
M858.997681,446.320801 
	C853.227356,446.321564 847.955872,446.321564 842.727966,446.321564 
	C842.273071,437.797485 849.166626,431.207886 857.943665,431.105652 
	C867.378540,430.995728 874.178650,437.207092 873.746521,445.850708 
	C869.059937,446.805664 864.252991,446.092255 858.997681,446.320801 
z"/>
<path fill="#000000" opacity="1.000000" stroke="none" 
	d="
M620.848999,478.296875 
	C605.560425,477.954224 600.621338,463.469971 601.132629,453.364166 
	C601.378174,448.510162 602.791443,443.871094 605.496338,439.744690 
	C612.800659,428.601654 628.583557,429.289490 635.210510,441.051270 
	C639.103821,447.961304 639.334473,455.429504 637.543335,462.843903 
	C635.501648,471.295410 630.284058,476.916595 620.848999,478.296875 
z"/>
<path fill="#000000" opacity="1.000000" stroke="none" 
	d="
M552.532959,441.743713 
	C556.432495,449.861237 556.511169,457.831604 553.524414,465.782104 
	C550.490784,473.857117 544.018066,478.507751 536.674988,478.324463 
	C529.149719,478.136627 522.550049,472.900177 519.830505,464.885071 
	C517.559814,458.192932 517.646729,451.446411 520.012756,444.841400 
	C522.619019,437.565521 527.496033,432.443115 535.526367,431.879944 
	C542.980591,431.357239 548.630005,434.893219 552.532959,441.743713 
z"/>
<path fill="#000000" opacity="1.000000" stroke="none" 
	d="
M566.155273,584.657104 
	C570.262878,584.655884 573.899292,584.655884 578.125488,584.655884 
	C578.104736,590.139343 580.062866,595.442566 575.267517,599.727905 
	C570.586975,603.910645 565.239563,605.256897 559.143494,603.688049 
	C554.807678,602.572205 552.000427,599.900146 551.830383,595.401123 
	C551.656860,590.811157 554.159119,587.610413 558.382629,585.788513 
	C560.721924,584.779358 563.173035,584.535645 566.155273,584.657104 
z"/>
</svg>